<svg width="349" height="268" viewBox="0 0 349 268" fill="none" xmlns="http://www.w3.org/2000/svg">
<path d="M94.9701 89.1851C91.4202 94.0935 87.2567 98.5637 82.655 102.245C71.611 111.054 59.0331 114.867 46.3236 113.201C34.2278 111.624 23.4466 116.269 14.2433 127.007C7.23115 135.202 3.85663 144.055 3.8128 144.142C3.41837 145.194 2.2789 145.72 1.27091 145.37C0.262918 145.019 -0.262966 143.879 0.131465 142.828C0.262942 142.433 14.7692 105.05 46.9372 109.257C61.6188 111.186 73.1449 104.831 80.2447 99.1773C92.3405 89.5357 101.149 74.1529 102.771 60.041C102.903 58.9454 103.867 58.1127 104.962 58.2003C106.058 58.288 106.803 59.2522 106.672 60.3478C105.62 70.0771 101.325 80.3761 94.9701 89.1851Z" fill="#1A1A1A"/>
<path d="M84.2944 13.7769L88.7091 44.2971L58.4019 49.8577L53.9872 19.3375L84.2944 13.7769Z" fill="white" stroke="#1A1A1A"/>
<path d="M46.9734 178.481C53.1415 182.915 54.4276 191.733 49.7885 198.186C45.1494 204.64 36.3813 206.23 30.2132 201.796C24.0451 197.362 22.7591 188.545 27.3982 182.091C32.0372 175.638 40.8053 174.047 46.9734 178.481Z" fill="white" stroke="#1A1A1A"/>
<path d="M40.5804 71.0816C43.9711 66.3647 43.0394 59.8953 38.4993 56.6317C33.9593 53.3681 27.5302 54.5463 24.1395 59.2632C20.7487 63.9801 21.6804 70.4496 26.2205 73.7132C30.7605 76.9768 37.1897 75.7986 40.5804 71.0816Z" fill="#1A1A1A"/>
<path d="M83.4438 132.923L74.6787 169.693L110.879 158.911L83.4438 132.923Z" fill="#333333"/>
<path d="M288.81 186.303C285.129 173.988 278.38 151.286 278.38 151.286H277.766H262.252H261.639C261.639 151.286 254.889 173.988 251.208 186.303C247.614 198.355 251.822 219.61 267.117 221.276V221.363H268.125H271.806H272.814V221.276C288.197 219.654 292.448 198.399 288.81 186.303Z" fill="#1A1A1A"/>
<path d="M173.231 184.441L162.062 154.713L173.462 151.047L181.45 181.557L173.231 184.441Z" fill="white" stroke="#1A1A1A"/>
<path d="M182.051 172.629C163.688 171.971 161.366 167.764 161.366 167.764L185.996 164.302L182.051 172.629Z" fill="black"/>
<path d="M186.04 189.282H146.29C146.29 189.282 147.429 180.736 159.744 182.139C172.059 183.541 169.123 177.669 169.123 177.669L184.944 178.633L186.04 189.282Z" fill="#3F51B5"/>
<path d="M203.296 89.9948C203.863 89.966 204.32 89.9445 204.654 89.9294L197.94 119.803L164.534 128.36L163.93 128.515L164.213 129.071L182.06 164.159C171.572 170.547 162.719 170.512 156.479 168.889C153.313 168.065 150.81 166.829 149.1 165.801C148.246 165.287 147.591 164.825 147.151 164.494C146.931 164.329 146.765 164.196 146.656 164.105C146.628 164.083 146.605 164.063 146.584 164.046L146.566 164C146.525 163.894 146.464 163.737 146.385 163.53C146.227 163.117 145.997 162.51 145.711 161.734C145.138 160.182 144.339 157.954 143.435 155.254C141.627 149.853 139.402 142.568 137.728 135.025C136.052 127.476 134.937 119.701 135.329 113.308C135.723 106.885 137.623 102.044 141.777 100.065C146.136 97.9881 152.277 96.3076 159.067 94.9581C165.85 93.6102 173.248 92.5987 180.101 91.849C186.953 91.0995 193.255 90.6125 197.844 90.3129C200.139 90.1631 202.004 90.0602 203.296 89.9948Z" fill="white" stroke="#1A1A1A"/>
<path d="M266.679 114.165H172.761V221.363H266.679V114.165Z" fill="#FFEFCF"/>
<path d="M153.083 140.067C157.378 149.402 168.816 153.959 178.502 151.111C188.538 148.131 193.884 138.401 202.387 133.055C204.403 131.784 206.638 130.819 209.048 130.513C212.203 130.118 215.447 130.819 218.339 132.134C224.212 134.764 228.726 139.409 233.108 144.011C237.359 148.437 241.742 153.083 247.439 155.581C253.619 158.298 260.543 158.254 267.117 157.553C280.878 156.063 294.42 152.25 306.998 146.465C308.576 145.764 310.11 145.019 311.644 144.23C311.907 144.099 312.082 144.011 311.819 143.792C311.6 143.617 310.899 143.879 310.68 144.011C298.408 150.19 285.129 154.398 271.5 156.414C264.794 157.378 257.694 157.991 251.121 155.888C245.204 153.959 240.559 149.708 236.308 145.326C231.969 140.856 227.805 136.122 222.371 132.923C217.463 130.031 211.809 128.847 206.287 130.557C196.689 133.493 191.299 142.959 183.191 148.218C181.087 149.577 178.852 150.585 176.398 151.023C173.9 151.461 171.314 151.33 168.86 150.76C163.995 149.664 159.437 146.86 156.501 142.828C155.756 141.82 155.143 140.724 154.617 139.585C154.529 139.234 152.951 139.76 153.083 140.067Z" fill="white"/>
<path d="M162.593 200.195C166.625 205.586 173.33 208.522 179.685 210.187C187.354 212.247 195.594 212.685 203.438 211.283C211.196 209.881 218.251 206.418 225.001 202.474C231.881 198.442 238.63 194.06 246.387 191.956C255.81 189.414 265.671 190.553 274.743 193.928C283.245 197.083 290.564 202.211 298.189 206.944C306.078 211.809 314.361 215.578 323.564 217.024C333.425 218.602 343.505 218.12 353.453 217.331C373.964 215.666 394.299 212.16 414.108 206.594C416.518 205.936 418.929 205.191 421.296 204.49C422.216 204.227 422.084 203.701 421.164 204.008C401.574 210.012 381.414 213.956 361.035 216.06C350.868 217.112 340.525 217.944 330.314 217.068C320.628 216.279 311.644 213.343 303.229 208.522C295.779 204.271 288.898 199.056 281.097 195.462C272.858 191.649 263.83 189.326 254.714 190.028C247.045 190.597 239.857 193.314 233.152 196.996C226.272 200.765 219.829 205.279 212.51 208.171C204.622 211.283 196.163 212.116 187.793 210.976C180.605 210.012 173.067 207.733 167.37 203.088C166.187 202.123 165.091 201.028 164.171 199.801C163.908 199.406 162.461 200.064 162.593 200.195Z" fill="white"/>
<path d="M267.906 124.727C260.368 128.935 253.312 134.413 247.746 141.03C245.073 144.186 242.663 147.955 242.005 152.075C241.348 156.106 242.706 159.875 245.292 162.987C247.878 166.099 251.252 168.553 254.539 170.788C257.958 173.111 261.551 175.171 265.277 176.967C272.727 180.561 280.659 183.191 288.679 185.294C296.831 187.398 305.114 188.976 313.397 190.466C314.405 190.641 315.457 190.816 316.465 190.992C316.377 190.904 316.246 190.86 316.158 190.773C317.078 196.996 311.293 201.466 306.516 204.271C303.317 206.155 299.899 207.777 296.568 209.442C293.106 211.195 289.6 212.904 286.094 214.526C271.807 221.275 257.213 227.367 242.356 232.801C234.292 235.738 225.483 238.762 216.849 236.483C216.499 236.395 215.973 236.526 215.71 236.789C215.447 237.052 215.534 237.272 215.841 237.359C223.598 239.419 231.662 237.403 239.025 234.861C246.782 232.232 254.408 229.208 261.99 226.096C269.572 222.984 277.109 219.697 284.56 216.191C291.879 212.773 299.198 209.267 306.297 205.41C311.776 202.43 318.831 197.434 317.78 190.334C317.78 190.203 317.561 190.115 317.473 190.115C309.365 188.669 301.301 187.223 293.325 185.294C285.436 183.41 277.592 181.043 270.141 177.8C262.778 174.601 255.547 170.525 249.543 165.135C246.607 162.505 244.065 159.306 243.583 155.274C243.057 151.11 244.898 147.078 247.22 143.748C249.631 140.242 252.742 137.218 255.898 134.413C259.141 131.564 262.603 129.022 266.241 126.743C267.117 126.174 268.038 125.648 268.958 125.166C269.221 125.034 269.396 124.727 269.089 124.552C268.739 124.377 268.169 124.596 267.906 124.727Z" fill="#FFC34E"/>
<path d="M129.285 106.803C140.023 116.269 150.278 126.261 160.007 136.736C169.693 147.122 178.808 158.035 187.442 169.298C191.781 174.995 195.944 180.78 199.976 186.697C204.052 192.657 207.996 198.705 211.415 205.104C217.989 217.287 223.072 231.092 221.714 245.16C221.144 251.252 219.654 259.009 214 262.471C211.02 264.312 207.295 264.882 203.877 265.495C200.02 266.197 196.076 266.679 192.131 266.898C190.203 267.029 188.275 267.073 186.346 267.117C186.04 267.117 185.426 267.204 185.295 267.555C185.119 267.862 185.426 268.037 185.733 267.993C193.49 267.906 201.422 267.117 208.96 265.276C212.16 264.487 215.271 263.26 217.594 260.806C219.742 258.571 221.056 255.635 221.889 252.698C225.833 238.981 222.283 224.299 216.498 211.634C210.451 198.398 201.948 186.346 193.359 174.645C184.725 162.9 175.522 151.549 165.748 140.724C155.975 129.899 145.676 119.556 134.851 109.783C133.493 108.556 132.134 107.329 130.776 106.145C130.337 105.795 128.847 106.408 129.285 106.803Z" fill="#FFC34E"/>
<path d="M269.571 125.999C267.029 127.971 265.846 118.11 262.603 118.592C259.36 119.074 250.025 119.25 248.228 117.102C246.431 114.955 252.698 100.229 252.698 100.229C252.698 100.229 260.718 109.301 263.698 110.046C272.507 112.15 269.571 125.999 269.571 125.999Z" fill="white"/>
<path d="M134.686 223.098H126.078L131.082 197.281L147.016 200.549L134.686 223.098Z" fill="white" stroke="#1A1A1A"/>
<path d="M136.385 229.427H99.7469C99.7469 229.427 100.886 220.881 113.201 222.283C125.516 223.686 122.58 217.813 122.58 217.813L138.401 218.777L136.385 229.427Z" fill="#3F51B5"/>
<path d="M269.352 107.022C262.208 120.389 236.22 119.293 236.22 119.293L215.315 54.694C215.315 54.694 211.853 35.8489 223.072 29.4066C245.116 16.741 269.352 107.022 269.352 107.022Z" fill="#1A1A1A"/>
<path d="M121.847 205.165C121.868 205.105 121.891 205.037 121.917 204.96C122.035 204.617 122.209 204.111 122.437 203.459C122.893 202.154 123.562 200.264 124.415 197.929C126.121 193.258 128.562 186.803 131.501 179.667C137.384 165.382 145.242 148.416 153.18 137.557C161.125 126.686 173.596 114.311 184.099 104.64C189.348 99.8076 194.098 95.6565 197.536 92.7135C199.255 91.2421 200.646 90.0729 201.607 89.2717C202.087 88.8712 202.46 88.5626 202.713 88.3543C202.746 88.3273 202.776 88.302 202.805 88.2783L229.877 107.229C229.865 107.382 229.841 107.604 229.796 107.891C229.698 108.512 229.502 109.44 229.104 110.639C228.31 113.036 226.712 116.523 223.494 120.818C217.057 129.409 204.134 141.241 178.193 154.037C171.908 157.129 167.38 162.917 164.118 169.789C160.855 176.664 158.836 184.669 157.591 192.27C156.346 199.874 155.872 207.096 155.709 212.414C155.628 215.074 155.624 217.26 155.641 218.781C155.649 219.542 155.663 220.137 155.674 220.542C155.675 220.563 155.675 220.583 155.676 220.603C146.744 219.859 138.31 216.028 132.049 212.326C128.858 210.44 126.242 208.592 124.424 207.217C123.515 206.53 122.807 205.961 122.326 205.565C122.126 205.4 121.966 205.266 121.847 205.165Z" fill="white" stroke="#1A1A1A"/>
<mask id="path-21-inside-1_318_1085" fill="white">
<path d="M178.633 77.3523C168.948 78.0535 155.581 84.4082 152.382 86.3804C149.139 88.3525 146.728 91.1136 147.035 92.1654C147.342 93.2172 154.091 91.4203 154.091 91.4203L179.51 88.5717L173.856 80.5954"/>
</mask>
<path d="M178.633 77.3523C168.948 78.0535 155.581 84.4082 152.382 86.3804C149.139 88.3525 146.728 91.1136 147.035 92.1654C147.342 93.2172 154.091 91.4203 154.091 91.4203L179.51 88.5717L173.856 80.5954" fill="white"/>
<path d="M152.382 86.3804L152.901 87.2348L152.906 87.2316L152.382 86.3804ZM154.091 91.4203L153.979 90.4266L153.905 90.4349L153.834 90.454L154.091 91.4203ZM179.51 88.5717L179.621 89.5655L181.306 89.3766L180.326 87.9934L179.51 88.5717ZM178.561 76.3549C173.568 76.7164 167.694 78.5235 162.713 80.4576C157.727 82.3937 153.525 84.5006 151.857 85.5291L152.906 87.2316C154.437 86.288 158.519 84.2316 163.437 82.322C168.36 80.4103 174.013 78.6895 178.705 78.3497L178.561 76.3549ZM151.862 85.526C150.165 86.5579 148.676 87.8011 147.637 88.9459C147.119 89.5159 146.688 90.0891 146.403 90.6243C146.149 91.1003 145.881 91.7804 146.075 92.4454L147.995 91.8854C148.035 92.0244 147.954 91.965 148.167 91.5659C148.348 91.2259 148.665 90.7884 149.117 90.2901C150.018 89.2984 151.355 88.1751 152.901 87.2348L151.862 85.526ZM146.075 92.4454C146.276 93.1337 146.919 93.3418 147.192 93.4076C147.535 93.4902 147.929 93.5035 148.297 93.4922C149.051 93.4693 149.984 93.3319 150.859 93.1708C151.745 93.0076 152.616 92.8117 153.263 92.6574C153.588 92.5801 153.857 92.5128 154.047 92.4647C154.141 92.4406 154.216 92.4213 154.267 92.4079C154.293 92.4013 154.313 92.396 154.326 92.3925C154.333 92.3907 154.338 92.3893 154.342 92.3883C154.344 92.3878 154.345 92.3874 154.346 92.3872C154.347 92.387 154.347 92.3869 154.347 92.3868C154.348 92.3868 154.348 92.3868 154.348 92.3867C154.348 92.3867 154.348 92.3867 154.091 91.4203C153.834 90.454 153.834 90.454 153.834 90.454C153.834 90.454 153.834 90.454 153.834 90.454C153.833 90.454 153.833 90.4541 153.833 90.4542C153.832 90.4543 153.831 90.4546 153.83 90.455C153.827 90.4557 153.823 90.4569 153.817 90.4585C153.805 90.4616 153.787 90.4664 153.763 90.4726C153.715 90.485 153.644 90.5033 153.554 90.5263C153.373 90.5724 153.113 90.6373 152.799 90.7119C152.171 90.8617 151.336 91.0492 150.497 91.2038C149.646 91.3604 148.834 91.475 148.236 91.4932C147.929 91.5025 147.745 91.4836 147.66 91.4632C147.506 91.4259 147.871 91.46 147.995 91.8854L146.075 92.4454ZM154.202 92.4141L179.621 89.5655L179.398 87.5779L153.979 90.4266L154.202 92.4141ZM180.326 87.9934L174.672 80.0172L173.04 81.1737L178.694 89.1499L180.326 87.9934Z" fill="#1A1A1A" mask="url(#path-21-inside-1_318_1085)"/>
<path d="M159.963 92.4719L168.728 78.9298L179.466 88.5714V95.2329L159.963 92.4719Z" fill="#333333"/>
<path d="M216.192 23.1397C221.734 23.1397 226.228 19.2547 226.228 14.4622C226.228 9.66978 221.734 5.78474 216.192 5.78474C210.649 5.78474 206.156 9.66978 206.156 14.4622C206.156 19.2547 210.649 23.1397 216.192 23.1397Z" fill="#1A1A1A"/>
<path d="M208.303 10.7373C207.426 11.3946 205.936 22.877 209.048 25.2435C210.1 26.0324 214.395 24.7615 214.395 24.7615L216.411 33.3951L226.184 29.4508L221.1 12.0959L212.335 9.90457L208.303 10.7373Z" fill="white" stroke="#1A1A1A"/>
<path d="M231.75 16.7414C236.373 16.7414 240.12 12.9937 240.12 8.37072C240.12 3.74772 236.373 3.05176e-05 231.75 3.05176e-05C227.127 3.05176e-05 223.379 3.74772 223.379 8.37072C223.379 12.9937 227.127 16.7414 231.75 16.7414Z" fill="#1A1A1A"/>
<path d="M223.949 21.7811C221.188 22.307 210.056 16.7412 207.646 12.5778L208.04 9.94822C208.04 9.94822 218.076 7.58164 218.427 8.0199C218.777 8.45815 221.801 9.94822 221.801 9.94822L222.678 13.5419L223.247 19.3269L223.949 21.7811Z" fill="#1A1A1A"/>
<path d="M219.265 21.1638C220.734 20.0562 221.215 18.2184 220.341 17.0589C219.466 15.8994 217.567 15.8574 216.098 16.9649C214.63 18.0725 214.148 19.9103 215.022 21.0698C215.897 22.2293 217.796 22.2713 219.265 21.1638Z" fill="white"/>
<path d="M126.524 61.9257C126.349 63.5911 141.469 94.9264 141.469 94.9264L177.187 94.4443L177.231 98.8707L136.692 99.4404L121.222 61.0053L126.524 61.9257Z" fill="#FFC34E"/>
<path d="M233.327 111.185C225.001 121.221 192.701 89.3162 192.701 89.3162C192.701 89.3162 201.948 86.336 199.976 73.4075C198.004 60.4789 208.829 32.1676 223.116 25.7252C237.403 19.2828 262.428 76.1246 233.327 111.185Z" fill="#1A1A1A"/>
<path d="M217.682 38.3906L229.69 39.5739C229.69 39.5739 239.332 100.053 209.399 113.245C179.466 126.392 182.095 97.3799 182.095 97.3799L217.682 38.3906Z" fill="#1A1A1A"/>
<path d="M166.932 77.0014C168.334 94.3564 173.111 103.078 183.454 103.341C193.841 103.604 221.845 94.3564 225.22 82.0414C228.594 69.7264 237.009 29.363 220.75 30.1957C204.49 31.0284 198.705 69.4196 198.705 69.4196L166.932 77.0014Z" fill="#1A1A1A"/>
<path d="M205.104 72.3998C202.562 73.101 199.538 71.8301 198.486 69.3759C198.398 69.1567 198.88 69.1567 198.968 69.1567C199.187 69.2006 199.538 69.2882 199.626 69.5073C200.371 71.2604 202.343 72.356 204.183 71.8301C204.446 71.7425 204.753 71.7863 205.016 71.9616C205.104 72.0492 205.367 72.3122 205.104 72.3998Z" fill="#1A1A1A"/>
<path d="M170.788 157.991C170.569 158.473 169.999 158.517 169.517 158.386C169.035 158.254 168.553 157.991 168.246 157.641C167.414 156.72 166.625 155.756 165.792 154.792C165.617 154.573 165.967 154.441 166.099 154.441C166.406 154.441 166.669 154.529 166.844 154.748C167.501 155.493 168.159 156.238 168.772 157.027C168.904 157.202 169.035 157.334 169.167 157.509C169.21 157.553 169.21 157.553 169.254 157.597C169.254 157.597 169.342 157.684 169.342 157.641C169.298 157.597 169.43 157.684 169.43 157.684C169.473 157.684 169.473 157.728 169.517 157.728C169.649 157.816 169.473 157.728 169.561 157.728C169.605 157.728 169.649 157.772 169.692 157.772C169.561 157.728 169.736 157.772 169.649 157.772C169.561 157.728 169.736 157.772 169.605 157.772C169.693 157.772 169.605 157.772 169.605 157.772C169.649 157.772 169.649 157.772 169.605 157.772C169.561 157.772 169.561 157.772 169.605 157.772C169.649 157.772 169.605 157.772 169.649 157.728C169.649 157.728 169.692 157.684 169.692 157.641C169.78 157.421 170.131 157.421 170.35 157.509C170.438 157.597 170.876 157.772 170.788 157.991Z" fill="black"/>
</svg>
